<?xml version="1.0" encoding="iso-8859-1"?>
<!-- Generator: Adobe Illustrator 19.0.0, SVG Export Plug-In . SVG Version: 6.00 Build 0)  -->
<svg version="1.1" id="Capa_1" xmlns="http://www.w3.org/2000/svg" xmlns:xlink="http://www.w3.org/1999/xlink" x="0px" y="0px"
	 viewBox="0 0 512.037 512.037" style="enable-background:new 0 0 512.037 512.037;" xml:space="preserve">
<path style="fill:#455A64;" d="M506.835,406.885l-101.867-61.12L384.019,10.043c-0.367-5.88-5.431-10.349-11.31-9.982
	c-2.599,0.162-5.048,1.269-6.887,3.112l-36.715,36.693c-45.602-24.671-100.574-24.671-146.176,0L146.237,3.152
	c-4.15-4.181-10.904-4.206-15.085-0.056c-1.864,1.851-2.98,4.324-3.134,6.946l-20.949,335.744L5.203,406.885
	c-3.217,1.927-5.185,5.402-5.184,9.152v85.333c0,5.891,4.776,10.667,10.667,10.667h490.667c5.891,0,10.667-4.776,10.667-10.667
	v-85.333C512.019,412.288,510.051,408.813,506.835,406.885z"/>
<path style="fill:#FFE082;" d="M341.032,221.456c-1.425-5.716-7.213-9.195-12.93-7.771c-0.114,0.028-0.227,0.059-0.34,0.091
	l-71.744,20.501l-71.744-20.501c-2.778-0.775-5.751-0.407-8.256,1.024c-2.504,1.447-4.314,3.849-5.013,6.656l-21.333,85.333
	c-1.089,4.373,0.687,8.958,4.437,11.456l64,42.667c1.75,1.167,3.806,1.79,5.909,1.792h64c2.103-0.002,4.159-0.625,5.909-1.792
	l64-42.667c3.75-2.498,5.527-7.083,4.437-11.456L341.032,221.456z"/>
<path style="fill:#455A64;" d="M277.352,298.704h-42.667c-5.891,0-10.667-4.776-10.667-10.667c0-5.891,4.776-10.667,10.667-10.667
	h42.667c5.891,0,10.667,4.776,10.667,10.667C288.019,293.928,283.243,298.704,277.352,298.704z"/>
<g>
	<path style="fill:#37474F;" d="M309.352,192.037h-21.333c-5.891,0-10.666-4.776-10.666-10.667c0-4.036,2.279-7.727,5.887-9.535
		l42.667-21.333c5.272-2.633,11.681-0.494,14.315,4.779s0.494,11.681-4.779,14.315l-16.107,8.043
		c2.062,5.518-0.74,11.663-6.259,13.725C311.886,191.808,310.624,192.036,309.352,192.037z"/>
	<path style="fill:#37474F;" d="M224.019,192.037h-21.333c-5.891,0-10.667-4.776-10.667-10.667v-4.075l-15.445-7.723
		c-5.272-2.633-7.412-9.042-4.779-14.315c2.633-5.272,9.042-7.412,14.315-4.779l21.12,10.667l0.405,0.192l21.141,10.667
		c5.175,2.814,7.089,9.291,4.275,14.467C231.242,189.799,227.804,191.917,224.019,192.037z"/>
</g>
<g>
</g>
<g>
</g>
<g>
</g>
<g>
</g>
<g>
</g>
<g>
</g>
<g>
</g>
<g>
</g>
<g>
</g>
<g>
</g>
<g>
</g>
<g>
</g>
<g>
</g>
<g>
</g>
<g>
</g>
</svg>
