<?xml version="1.0" encoding="iso-8859-1"?>
<!-- Generator: Adobe Illustrator 19.0.0, SVG Export Plug-In . SVG Version: 6.00 Build 0)  -->
<svg version="1.1" id="Capa_1" xmlns="http://www.w3.org/2000/svg" xmlns:xlink="http://www.w3.org/1999/xlink" x="0px" y="0px"
	 viewBox="0 0 512.006 512.006" style="enable-background:new 0 0 512.006 512.006;" xml:space="preserve">
<path style="fill:#F44336;" d="M431.087,374.297l-117.333-53.333c-4.044-1.854-8.814-1.004-11.968,2.133l-18.197,18.24H228.42
	l-18.219-18.219c-3.154-3.137-7.924-3.988-11.968-2.133L80.9,374.318c-4.753,2.168-7.236,7.46-5.867,12.501l32,117.333
	c1.27,4.642,5.492,7.858,10.304,7.851h64c5.891,0,10.667-4.776,10.667-10.667c0-29.547,35.008-53.333,64-53.333s64,23.787,64,53.333
	c0,5.891,4.776,10.667,10.667,10.667h64c4.811-0.005,9.022-3.23,10.283-7.872l32-117.333
	C438.323,381.756,435.84,376.465,431.087,374.297z"/>
<g>
	<path style="fill:#FFC107;" d="M127.62,498.542l-32-117.333c-0.489-1.791-1.438-3.424-2.752-4.736l-10.667-10.667
		c-3.241-3.238-8.186-4.045-12.288-2.005L45.722,375.79c-14.661,7.395-25.079,21.153-28.224,37.269l-17.28,86.144
		c-1.178,5.772,2.546,11.406,8.318,12.585c0.703,0.143,1.418,0.216,2.136,0.216h106.667c5.891-0.006,10.662-4.787,10.655-10.678
		C127.992,500.385,127.867,499.449,127.62,498.542z"/>
	<path style="fill:#FFC107;" d="M494.532,413.081c-3.158-16.17-13.628-29.964-28.352-37.355l-24.107-11.947
		c-4.102-2.039-9.047-1.232-12.288,2.005l-10.667,10.667c-1.314,1.312-2.263,2.945-2.752,4.736l-32,117.333
		c-1.555,5.682,1.79,11.549,7.472,13.104c0.923,0.253,1.875,0.38,2.832,0.378h106.667c5.891,0.001,10.668-4.773,10.669-10.665
		c0-0.717-0.072-1.433-0.216-2.135L494.532,413.081z"/>
</g>
<path style="fill:#ECEFF1;" d="M256.004,426.67c-40.277,0-85.333,32-85.333,74.667c0,5.891,4.776,10.667,10.667,10.667h149.333
	c5.891,0,10.667-4.776,10.667-10.667C341.338,458.67,296.282,426.67,256.004,426.67z"/>
<path style="fill:#FFC107;" d="M383.684,141.273c0.213-0.851,0.321-1.725,0.32-2.603c0-40.939-2.389-92.139-13.781-103.552
	c-17.051-12.562-36.505-21.48-57.152-26.197c-5.277-1.47-10.81,1.296-12.8,6.4l-19.477,48.683h-49.579l-19.499-48.768
	c-1.99-5.104-7.523-7.87-12.8-6.4c-20.646,4.746-40.093,13.693-57.131,26.283c-11.392,11.413-13.781,62.613-13.781,103.552
	c0.002,0.844,0.117,1.683,0.341,2.496c-0.341,2.667-0.341,5.419-0.341,8.171c0.034,2.489,0.197,4.974,0.491,7.445
	c-0.326,1.043-0.491,2.129-0.491,3.221v64c0,5.891,4.776,10.667,10.667,10.667c16.03-0.509,31.549,5.674,42.837,17.067
	c7.315,7.614,11.066,17.969,10.325,28.501c-0.506,5.869,3.841,11.038,9.71,11.544c2.424,0.209,4.846-0.417,6.866-1.773
	l18.859-12.672h57.472l18.837,12.693c4.89,3.285,11.517,1.985,14.803-2.905c1.357-2.019,1.983-4.442,1.773-6.866
	c-0.741-10.533,3.01-20.887,10.325-28.501c11.29-11.406,26.818-17.597,42.859-17.088c5.891,0,10.667-4.776,10.667-10.667v-64
	c-0.001-1.08-0.173-2.153-0.512-3.179c0.305-2.485,0.476-4.985,0.512-7.488C384.004,146.627,384.004,143.918,383.684,141.273z"/>
<g>
	<path style="fill:#FAFAFA;" d="M362.116,135.299c-1.865-5.582-7.898-8.598-13.483-6.741l-64,21.333
		c-5.585,1.875-8.592,7.922-6.717,13.507c1.456,4.336,5.514,7.261,10.088,7.272h53.333c5.891,0,10.667-4.776,10.667-10.667v-10.091
		l3.371-1.131C360.957,146.917,363.973,140.884,362.116,135.299z"/>
	<path style="fill:#FAFAFA;" d="M227.375,149.891l-64-21.333c-5.514-2.074-11.665,0.715-13.739,6.229s0.715,11.665,6.229,13.739
		c0.253,0.095,0.509,0.18,0.768,0.256l14.037,4.693v6.528c0,5.891,4.776,10.667,10.667,10.667h42.667
		c5.891-0.013,10.656-4.8,10.643-10.691C234.636,155.405,231.711,151.347,227.375,149.891z"/>
</g>
<g>
	<path style="fill:#F44336;" d="M319.77,14.489c-1.334-2.707-3.753-4.723-6.656-5.547c-18.558-5.491-37.761-8.496-57.109-8.939
		c-19.348,0.442-38.552,3.448-57.109,8.939c-5.652,1.661-8.887,7.59-7.226,13.242c0.096,0.327,0.208,0.65,0.335,0.966l22.187,55.467
		c1.603,4.025,5.481,6.681,9.813,6.72h64c4.358-0.001,8.277-2.653,9.899-6.699l22.101-55.488
		C321.155,20.36,321.07,17.212,319.77,14.489z"/>
	<path style="fill:#F44336;" d="M208.282,290.137c2.749-1.793,4.519-4.751,4.8-8.021c1.307-16.505-4.454-32.789-15.851-44.8
		c-15.322-15.81-36.55-24.502-58.56-23.979c-5.891,0-10.667,4.776-10.667,10.667v21.333c0,2.308,0.749,4.554,2.133,6.4l32,42.667
		c2.014,2.686,5.176,4.267,8.533,4.267h21.333c2.068,0.001,4.091-0.6,5.824-1.728L208.282,290.137z"/>
	<path style="fill:#F44336;" d="M373.338,213.337c-22.013-0.518-43.242,8.182-58.56,24c-11.396,12.011-17.158,28.295-15.851,44.8
		c0.281,3.27,2.051,6.228,4.8,8.021l10.453,6.827c1.737,1.113,3.761,1.699,5.824,1.685h21.333c3.357,0,6.519-1.581,8.533-4.267
		l32-42.667c1.385-1.846,2.133-4.092,2.133-6.4v-21.333C384.004,218.112,379.229,213.337,373.338,213.337z"/>
</g>
<path style="fill:#FFA000;" d="M350.874,283.225c-1.808-3.609-5.499-5.888-9.536-5.888h-18.112l-29.312-19.541
	c-1.75-1.167-3.806-1.79-5.909-1.792h-64c-2.12-0.001-4.192,0.631-5.952,1.813l-29.205,19.52h-18.176
	c-5.891,0-10.667,4.776-10.667,10.667c0,2.308,0.749,4.554,2.133,6.4l32,42.667c3.095,4.127,8.7,5.447,13.312,3.136l40.405-20.203
	h16.299l40.427,20.203c4.607,2.299,10.198,0.98,13.291-3.136l32-42.667C352.297,291.168,352.685,286.84,350.874,283.225z"/>
<path style="fill:#D32F2F;" d="M314.116,321.134l-42.667-21.333c-1.483-0.743-3.12-1.131-4.779-1.131h-21.333
	c-1.659,0-3.295,0.387-4.779,1.131l-42.667,21.333c-5.266,2.64-7.395,9.05-4.755,14.316c0.51,1.017,1.179,1.945,1.982,2.751
	l21.333,21.333c2.001,2.007,4.718,3.135,7.552,3.136h64c2.831,0.005,5.548-1.115,7.552-3.115l21.333-21.333
	c4.159-4.172,4.149-10.926-0.023-15.085c-0.805-0.803-1.734-1.472-2.751-1.982V321.134z"/>
<g>
</g>
<g>
</g>
<g>
</g>
<g>
</g>
<g>
</g>
<g>
</g>
<g>
</g>
<g>
</g>
<g>
</g>
<g>
</g>
<g>
</g>
<g>
</g>
<g>
</g>
<g>
</g>
<g>
</g>
</svg>
